# xmcd
#
# Track frame offsets:
#	150
#	13965
#	27988
#	40202
#	53587
#	62317
#	73049
#	89422
#	113295
#	132020
#	146524
#	156164
#	184560
#	194394
#	209788
#	221508
#	233699
#	258676
#
# Disc length: 3846
#
# Revision: 6
# Processed by: cddbd v1.5.1PL0 Copyright (c) Steve Scherf et al.
# Submitted via: CDex 1.51
# Normalized: r4:TDELIM( - ),TSWAP
#
DISCID=fd0f0412
DTITLE=Various Artist - Mid Summer Night's Jazz
DYEAR=1900
DGENRE=Jazz
TTITLE0=Andy Williams - Under Paris Skies
TTITLE1=Bing Crosby - Sweet Georgia Brown
TTITLE2=Sarah Vaughan - Shulie a Bop
TTITLE3=Frank Sinatra - Begin the Beguine
TTITLE4=Tony Hatch Sound - Music to Watch Girls By
TTITLE5=Kenny Ball and His Jazz Men - Samantha
TTITLE6=Nina Simone - My Baby Just Cares for Me
TTITLE7=Sonny Stitt and Red Holloway - You Don't Know What Love Is
TTITLE8=Carman McRae - This Masquerade
TTITLE9=Nat King Cole - I'm in The Mood for Love
TTITLE10=John Hendricks - Yeh Yeh
TTITLE11=Charlie Parker and Chet Baker - Irresistible
TTITLE12=Fred Astaire - Putting on the Ritz
TTITLE13=Louis Armstrong - No One Else but You
TTITLE14=Miles Davis - Move
TTITLE15=Billie Holiday - I Hear Music
TTITLE16=Ray Anthony - How High the Moon
TTITLE17=Ella Fitzgerald and Duke Ellington - Take the A Train
EXTD=
EXTT0=
EXTT1=
EXTT2=
EXTT3=
EXTT4=
EXTT5=
EXTT6=
EXTT7=
EXTT8=
EXTT9=
EXTT10=
EXTT11=
EXTT12=
EXTT13=
EXTT14=
EXTT15=
EXTT16=
EXTT17=
PLAYORDER=
